<?xml version="1.0" standalone="no"?>
<!DOCTYPE svg PUBLIC "-//W3C//DTD SVG 20010904//EN"
 "http://www.w3.org/TR/2001/REC-SVG-20010904/DTD/svg10.dtd">
<svg version="1.0" xmlns="http://www.w3.org/2000/svg"
 width="500.000000pt" height="500.000000pt" viewBox="0 0 500.000000 500.000000"
 preserveAspectRatio="xMidYMid meet">

<g transform="translate(0.000000,500.000000) scale(0.100000,-0.100000)"
fill="#000000" stroke="none">
<path d="M3596 2955 c-3 -9 -6 -153 -6 -320 0 -317 2 -335 44 -319 15 6 16 37
14 328 -3 319 -3 321 -24 324 -13 2 -24 -4 -28 -13z"/>
<path d="M1806 2944 c-14 -13 -16 -55 -16 -309 0 -264 2 -295 17 -311 15 -15
33 -16 140 -11 109 4 130 8 185 34 70 33 117 76 156 142 34 58 42 175 18 248
-35 104 -117 178 -231 208 -81 21 -248 21 -269 -1z m279 -71 c63 -21 136 -93
153 -149 43 -145 -28 -289 -162 -329 -27 -8 -87 -15 -133 -15 l-83 0 0 255 0
255 88 0 c56 0 106 -6 137 -17z"/>
<path d="M2936 2864 c-3 -9 -6 -40 -6 -70 l0 -54 -40 0 c-36 0 -40 -2 -40 -25
0 -22 4 -25 40 -25 l40 0 0 -179 c0 -194 5 -215 49 -191 20 10 21 19 21 190
l0 179 43 3 c35 2 43 7 45 26 3 20 -1 22 -42 22 l-46 0 0 54 c0 69 -7 86 -35
86 -13 0 -26 -7 -29 -16z"/>
<path d="M2510 2744 c-163 -71 -183 -302 -35 -402 47 -32 54 -34 122 -30 63 3
76 7 112 36 l41 33 0 -34 c0 -38 23 -56 46 -36 21 18 20 421 -1 439 -22 18
-45 -4 -45 -44 l0 -31 -18 22 c-24 31 -99 63 -147 62 -22 0 -56 -7 -75 -15z
m163 -70 c57 -30 89 -122 67 -191 -23 -71 -79 -113 -152 -113 -87 0 -148 65
-148 158 0 134 115 206 233 146z"/>
<path d="M3251 2750 c-50 -12 -112 -60 -135 -104 -28 -55 -33 -145 -11 -201 9
-25 20 -45 25 -45 5 0 11 -8 15 -18 8 -27 103 -72 150 -72 51 0 86 10 79 21
-3 5 1 6 9 3 8 -3 28 8 45 26 l31 30 3 -37 c3 -33 6 -38 28 -38 l25 0 0 215
c0 202 -1 215 -19 218 -23 5 -36 -14 -36 -52 l0 -29 -20 25 c-37 47 -124 74
-189 58z m112 -64 c36 -14 87 -69 87 -92 0 -8 4 -14 8 -14 15 0 -6 -122 -25
-149 -29 -40 -101 -73 -145 -68 -127 16 -187 158 -114 268 42 63 117 85 189
55z"/>
<path d="M4204 2750 c-34 -14 -54 -50 -54 -100 1 -56 13 -72 97 -129 76 -53
95 -86 69 -126 -33 -50 -106 -41 -134 18 -14 28 -20 31 -46 21 -49 -19 18
-116 88 -130 86 -16 166 41 166 117 0 68 -36 117 -117 158 -67 34 -86 93 -36
112 32 12 73 -2 73 -25 0 -7 7 -19 16 -26 24 -21 48 9 39 50 -12 55 -96 87
-161 60z"/>
<path d="M3697 2725 c-4 -9 29 -92 78 -195 l84 -179 -50 -110 c-27 -61 -49
-120 -49 -131 0 -26 27 -37 45 -19 8 8 59 113 113 234 55 121 117 257 137 302
40 86 41 117 4 111 -18 -2 -36 -35 -92 -162 l-71 -159 -58 124 c-31 68 -65
140 -75 159 -19 38 -56 52 -66 25z"/>
</g>
</svg>
