<?xml version="1.0" standalone="no"?>
<!DOCTYPE svg PUBLIC "-//W3C//DTD SVG 20010904//EN"
 "http://www.w3.org/TR/2001/REC-SVG-20010904/DTD/svg10.dtd">
<svg version="1.0" xmlns="http://www.w3.org/2000/svg"
 width="500.000000pt" height="500.000000pt" viewBox="0 0 500.000000 500.000000"
 preserveAspectRatio="xMidYMid meet">

<g transform="translate(0.000000,500.000000) scale(0.100000,-0.100000)"
fill="#000000" stroke="none">
<path d="M1141 3025 c0 -5 8 -41 19 -80 11 -38 18 -54 15 -34 -6 39 -33 130
-34 114z"/>
<path d="M1277 2911 c-37 -43 -67 -82 -67 -85 0 -3 25 24 57 61 31 38 63 76
71 86 8 9 13 17 10 17 -3 0 -35 -35 -71 -79z"/>
<path d="M1182 2850 c0 -14 2 -19 5 -12 2 6 2 18 0 25 -3 6 -5 1 -5 -13z"/>
<path d="M1070 2835 c52 -13 97 -22 99 -20 1 2 -17 9 -40 15 -24 6 -60 15 -79
21 -19 5 -44 9 -55 8 -11 0 23 -11 75 -24z"/>
<path d="M972 2810 c0 -14 2 -19 5 -12 2 6 2 18 0 25 -3 6 -5 1 -5 -13z"/>
<path d="M1227 2800 c4 -4 40 -15 78 -24 39 -9 81 -19 95 -22 14 -4 22 -4 18
1 -4 4 -50 17 -103 30 -53 12 -93 19 -88 15z"/>
<path d="M987 2750 c3 -19 12 -53 19 -75 13 -38 13 -38 7 -5 -3 19 -12 53 -19
75 -13 38 -13 38 -7 5z"/>
<path d="M1374 2678 c-74 -82 -87 -98 -82 -98 3 0 31 29 63 65 58 66 73 92 19
33z"/>
<path d="M3078 2648 c-133 -83 -126 -267 13 -338 21 -11 54 -20 74 -20 40 0
113 33 122 55 10 27 23 15 23 -20 0 -28 4 -35 20 -35 19 0 20 7 20 189 0 175
-1 189 -17 187 -11 -2 -19 -13 -21 -29 -4 -33 -7 -33 -51 0 -50 38 -131 43
-183 11z m143 -30 c33 -9 43 -20 65 -64 35 -71 27 -123 -26 -176 -33 -33 -44
-38 -84 -38 -94 0 -152 61 -144 151 6 59 31 97 79 121 40 21 58 22 110 6z"/>
<path d="M833 2643 c9 -2 23 -2 30 0 6 3 -1 5 -18 5 -16 0 -22 -2 -12 -5z"/>
<path d="M895 2631 c11 -5 40 -11 65 -14 l45 -7 -50 15 c-54 16 -94 19 -60 6z"/>
<path d="M800 2604 c0 -19 33 -144 37 -141 5 6 -27 147 -33 147 -2 0 -4 -2 -4
-6z"/>
<path d="M658 2443 c6 -2 18 -2 25 0 6 3 1 5 -13 5 -14 0 -19 -2 -12 -5z"/>
<path d="M705 2435 c33 -12 126 -33 119 -26 -10 9 -96 31 -116 30 -7 0 -8 -2
-3 -4z"/>
<path d="M766 2308 c-32 -38 -56 -71 -55 -73 2 -2 30 28 62 67 33 38 57 71 55
72 -1 2 -29 -28 -62 -66z"/>
<path d="M866 2350 c4 -19 11 -44 15 -55 6 -14 7 -9 3 15 -4 19 -11 44 -15 55
-6 14 -7 9 -3 -15z"/>
<path d="M892 2250 c0 -14 2 -19 5 -12 2 6 2 18 0 25 -3 6 -5 1 -5 -13z"/>
<path d="M989 2233 l-24 -28 28 24 c25 23 32 31 24 31 -2 0 -14 -12 -28 -27z"/>
<path d="M901 2210 c0 -8 4 -24 9 -35 5 -13 9 -14 9 -5 0 8 -4 24 -9 35 -5 13
-9 14 -9 5z"/>
<path d="M949 2183 c-13 -16 -12 -17 4 -4 9 7 17 15 17 17 0 8 -8 3 -21 -13z"/>
<path d="M1361 2124 c0 -11 3 -14 6 -6 3 7 2 16 -1 19 -3 4 -6 -2 -5 -13z"/>
<path d="M1371 2084 c0 -11 3 -14 6 -6 3 7 2 16 -1 19 -3 4 -6 -2 -5 -13z"/>
<path d="M1268 2063 c7 -3 16 -2 19 1 4 3 -2 6 -13 5 -11 0 -14 -3 -6 -6z"/>
<path d="M1308 2053 c7 -3 16 -2 19 1 4 3 -2 6 -13 5 -11 0 -14 -3 -6 -6z"/>
<path d="M1348 2043 c7 -3 16 -2 19 1 4 3 -2 6 -13 5 -11 0 -14 -3 -6 -6z"/>
<path d="M1079 2013 c-13 -16 -12 -17 4 -4 9 7 17 15 17 17 0 8 -8 3 -21 -13z"/>
</g>
</svg>
